<svg width="268" height="293" viewBox="0 0 268 293" fill="none" xmlns="http://www.w3.org/2000/svg">
<path fill-rule="evenodd" clip-rule="evenodd" d="M212.477 194.096C210.643 195.723 208.402 196.537 205.958 196.334C206.977 199.384 206.162 202.842 203.921 205.08C201.68 207.317 198.217 208.131 195.161 206.91C194.957 209.351 193.328 211.588 191.087 212.606C188.642 213.622 185.79 213.215 183.753 211.588C182.734 213.826 180.29 215.25 177.845 215.047C177.845 216.47 177.437 217.691 176.623 218.911C173.975 224.81 167.252 227.657 161.14 225.216C161.344 230.708 157.066 235.386 151.362 235.59C148.714 235.59 146.065 234.776 144.028 232.742C142.602 235.997 139.75 238.031 136.287 238.234C132.823 238.438 129.564 236.607 127.935 233.556C125.897 236.2 122.638 237.42 119.378 236.607C116.119 235.793 113.675 233.149 113.063 230.098C110.619 231.115 107.97 230.912 105.933 229.285C103.896 227.657 102.877 225.216 103.285 222.572L100.636 222.369C97.7839 221.555 96.1545 218.504 96.7658 215.656C94.9325 217.487 92.6917 218.3 90.0433 218.504C83.3207 219.114 77.6162 214.436 77.0051 208.131C73.5419 210.165 69.2638 209.758 66.0044 207.317C62.7449 204.876 61.3189 200.808 62.3375 196.943C57.4482 197.554 52.9664 193.893 52.559 189.011C52.3553 186.977 52.9664 184.74 53.985 183.112C49.5033 182.502 46.2438 178.23 46.8549 173.756C47.0587 171.722 48.2809 169.688 49.9107 168.468C47.8735 166.84 46.8549 164.399 47.2624 161.755C47.6698 159.111 49.5033 157.076 51.9479 156.263C50.1145 154.026 50.3182 150.568 52.3553 148.534H52.559C51.133 147.72 49.9107 146.703 48.8921 145.279C45.0215 139.991 46.0401 132.669 51.133 128.601C47.6698 126.566 45.6327 122.702 46.2438 118.838C46.6512 114.77 49.5033 111.515 53.3739 110.294C51.3367 107.447 51.133 103.785 52.7627 100.735C54.3925 97.6838 57.8557 95.8533 61.3189 96.2594C60.0966 93.209 60.9114 89.7508 63.1523 87.5134C65.3932 85.276 68.8564 84.4621 71.9122 85.683C72.1159 83.2421 73.7456 81.0046 76.1903 79.9877C78.6348 78.9707 81.2832 79.3774 83.3207 81.0046C84.3388 78.5639 86.7835 77.1401 89.2281 77.3434L89.4319 77.9536C89.4319 74.089 91.469 70.4278 94.7288 68.1904C97.9877 65.953 102.063 65.5461 105.729 66.9699L106.341 63.5121C107.359 60.2577 110.211 57.8169 113.471 57.0033C116.73 56.1897 120.193 57.2067 122.842 59.4441C124.064 56.1897 127.12 53.9523 130.786 53.7489C134.25 53.5455 137.509 55.3761 139.139 58.6305C141.176 55.9863 144.435 54.7658 147.695 55.5795C150.955 56.3931 153.399 59.0373 154.01 62.0883C156.454 61.0713 159.103 61.4782 161.14 63.1054C163.177 64.7326 164.196 67.3768 163.585 69.8176C166.641 69.2074 169.697 71.2414 170.307 74.2924C170.511 75.106 170.511 75.7162 170.307 76.5298C172.141 74.6992 174.382 73.8856 177.031 73.4788C183.753 73.072 189.253 77.7502 189.864 84.056C193.328 82.0221 197.81 82.2247 201.069 84.6656C204.328 87.1065 205.754 91.3786 204.736 95.2429C209.625 94.6325 214.107 98.2942 214.514 103.175C214.718 105.21 214.107 107.447 213.088 109.074C216.348 109.685 218.996 111.922 219.81 115.176C220.626 118.431 219.607 121.685 216.959 123.719C218.385 124.736 219.404 126.364 219.81 127.991C220.218 131.448 218.385 134.703 215.125 136.126C216.959 138.364 216.755 141.822 214.718 143.856C218.181 145.89 220.422 149.551 220.626 153.416C220.829 157.483 218.996 161.145 215.94 163.586C216.959 164.196 217.773 164.806 218.589 165.823C220.829 168.468 221.441 171.925 220.626 175.18C219.607 178.434 217.162 180.875 213.903 181.892C216.552 185.96 215.94 191.248 212.477 194.096ZM242.831 55.3761L158.085 6.5597C143.009 -2.18657 124.267 -2.18657 109.192 6.5597L24.4461 55.3761C9.37098 64.1223 0 80.1911 0 97.6838V195.316C0 212.809 9.37098 228.878 24.4461 237.624L109.192 286.44C124.267 295.187 143.009 295.187 158.085 286.44L242.831 237.624C257.906 228.878 267.277 212.809 267.277 195.316V97.4803C267.277 80.1911 257.906 64.1223 242.831 55.3761ZM68.449 131.45C70.8936 134.704 71.5048 138.976 70.0787 142.841C74.9679 143.248 78.8386 147.112 79.246 151.994C83.7275 150.976 88.2092 153.417 89.8395 157.486C93.506 154.842 98.8029 155.451 101.451 159.316L101.859 159.723L102.877 158.706C105.118 156.672 108.581 156.468 111.23 158.299C111.637 157.079 112.248 156.062 113.063 155.248C115.304 153.417 118.156 153.214 120.397 154.842C120.805 153.417 122.027 152.401 123.452 152.197C122.434 150.57 122.027 148.739 121.823 146.909V147.112C119.786 147.722 117.749 146.705 117.137 144.875C117.137 144.671 117.137 144.671 116.933 144.468C115.1 145.485 112.859 145.689 111.026 144.671C109.193 143.654 107.97 141.823 107.766 139.789C106.544 140.196 104.71 140.4 103.285 139.789C99.8218 138.569 97.9877 134.908 99.0067 131.45C95.9507 131.654 93.0985 130.026 91.469 127.382C89.8395 124.738 90.0433 121.483 91.6728 118.839C88.413 118.025 85.7653 115.178 85.154 111.924C84.3388 108.465 85.5616 105.008 88.2092 102.974C84.3388 99.5158 83.9313 93.6176 86.9873 89.5497C86.7484 89.5497 86.5797 89.4798 86.4403 89.422C86.3408 89.3813 86.2569 89.3463 86.1721 89.3463C85.7653 91.1767 84.3388 92.8037 82.7093 93.6176C81.0794 94.6341 79.0423 94.6341 77.2089 94.228C77.0052 98.4993 73.3382 101.957 69.0601 102.16C70.2824 104.398 70.4862 107.245 69.4676 109.686C68.449 112.127 66.4119 113.957 63.9672 114.771C67.2267 118.839 67.023 124.535 63.3561 128.196C65.1895 128.196 67.023 129.416 68.449 131.45ZM128.545 180.47C123.86 180.876 120.6 185.148 121.211 189.623C116.73 188.809 112.248 191.657 110.821 195.725C106.34 193.691 101.248 195.114 98.3953 199.183L98.1915 198.98C94.1174 193.894 86.5797 193.284 81.4865 197.352C80.2643 192.47 75.1713 189.216 70.0784 190.029C70.4858 187.589 69.8747 184.945 68.245 182.91C66.6152 180.876 64.3743 179.656 61.726 179.453C63.9669 175.792 62.7446 170.91 59.0777 168.469C60.7074 166.842 61.726 164.401 61.1148 161.96C60.9111 160.536 60.0962 159.113 59.0777 158.095C59.4851 158.095 59.8925 157.892 60.3 157.689C62.5409 161.96 67.6338 163.995 72.3193 162.57C72.7268 166.028 75.1713 168.673 78.2271 169.893C81.2828 171.114 84.7464 170.503 87.394 168.266C88.6167 170.503 90.6538 172.334 93.3022 172.741C95.9507 173.148 98.5991 172.334 100.432 170.707C101.044 170.3 102.062 169.282 102.266 168.469C103.895 170.503 106.544 171.114 108.988 170.503C111.433 169.893 113.266 167.859 113.877 165.418C115.915 166.435 118.155 166.638 120.192 165.418C122.23 164.197 123.248 162.163 123.248 159.926C124.267 160.333 125.693 159.926 126.508 159.113C127.323 158.502 127.73 157.485 127.934 156.672C129.767 157.689 131.804 158.299 133.842 158.299C133.435 158.909 133.435 159.722 133.435 160.333C133.638 161.147 133.842 161.96 134.453 162.367C132.008 163.588 130.786 166.232 131.194 168.876C131.194 169.893 132.008 171.114 132.823 171.927C129.971 172.944 128.342 176.198 128.953 179.249L129.157 180.47H128.545ZM146.065 103.38C146.268 105.618 145.658 108.058 144.027 109.686C142.398 111.517 140.361 112.533 137.916 112.533L138.12 113.754C138.731 116.805 137.305 120.059 134.453 121.077H134.25C136.694 123.517 136.694 127.382 134.25 129.619C133.842 130.026 133.435 130.433 132.823 130.636C133.435 131.45 133.842 132.263 133.638 133.281C135.675 133.281 137.916 133.89 139.75 135.111C140.565 133.483 142.194 132.67 144.027 133.077C144.027 130.84 145.046 128.805 147.083 127.585C149.121 126.364 151.361 126.568 153.398 127.585C153.398 126.162 154.214 124.941 155.436 123.924C158.492 121.483 162.566 121.686 164.807 124.534C167.048 120.466 171.937 119.043 176.012 121.077C177.437 121.89 178.66 123.11 179.474 124.534C182.123 122.297 185.586 121.686 188.642 122.907C191.698 124.127 194.142 126.771 194.55 130.23C199.235 128.603 204.328 130.636 206.569 135.111L207.587 134.501C204.736 131.856 204.532 127.382 207.18 124.534C207.258 124.457 207.306 124.378 207.347 124.313C207.414 124.205 207.462 124.127 207.587 124.127C203.921 121.686 202.698 116.805 204.939 113.144C202.291 113.144 199.847 111.924 198.216 109.686C196.587 107.651 195.975 105.008 196.383 102.364C191.29 103.177 186.197 99.9228 184.975 95.0411C179.882 99.1089 172.344 98.295 168.27 93.2106C165.418 97.2784 160.122 98.7019 155.639 96.4645C154.825 101.143 150.547 103.991 146.065 103.38ZM101.655 115.177C104.507 111.517 104.1 106.228 100.84 102.974C104.915 99.9228 106.137 94.6341 104.1 90.3628C110.619 89.1428 114.896 83.0403 113.878 76.5316C118.971 77.9554 124.064 74.9044 125.694 70.0228C127.731 71.65 130.379 72.2601 132.824 71.8534C135.269 71.4465 137.51 70.0228 138.935 67.7853C141.38 71.4465 146.065 72.6669 149.936 70.4295C150.547 72.8703 151.974 75.1078 154.621 75.9213C156.048 76.3282 157.677 76.1247 159.103 75.5146L159.307 77.7519C155.233 78.3622 151.77 81.4133 150.955 85.4811C147.695 84.2611 144.232 84.6672 141.584 86.9054C138.935 89.1428 137.713 92.6002 138.324 95.8549C135.269 95.8549 132.416 97.2784 130.787 99.9228C129.36 102.567 129.157 105.821 130.787 108.465C128.342 109.076 126.304 110.906 125.694 113.347C125.083 115.788 125.898 118.432 127.731 120.059C125.898 121.077 124.675 123.11 124.675 125.144C124.675 127.382 125.694 129.213 127.527 130.433C126.916 131.45 126.304 132.67 126.508 133.891L127.12 135.518C125.49 136.738 124.064 138.366 123.045 140.196C122.027 139.586 120.805 139.179 119.582 139.586C119.786 137.552 118.971 135.518 117.341 134.297C115.712 133.077 113.471 132.67 111.637 133.281C112.045 130.433 110.007 127.585 106.952 126.772L105.729 126.365C106.748 124.331 106.952 122.094 106.137 119.856C105.322 117.822 103.692 115.991 101.655 115.177ZM197.81 183.927C198.828 181.487 200.865 179.656 203.309 178.842C200.05 174.774 200.254 169.079 203.921 165.418C201.68 164.808 199.847 163.384 198.624 161.554H198.421C195.976 158.299 195.365 154.028 196.791 150.163C191.901 149.756 188.031 145.891 187.623 141.009C183.346 142.027 178.864 139.586 177.234 135.518C175.4 136.942 172.956 137.552 170.715 137.145C168.474 136.738 166.437 135.315 165.215 133.281L164.196 134.297C161.955 136.331 158.492 136.535 156.048 134.908C155.64 136.129 154.825 137.145 154.01 137.959C151.973 139.789 148.918 139.993 146.677 138.366C146.473 139.383 145.658 140.196 144.639 140.807C145.454 142.434 146.065 144.468 146.065 146.502H147.695C149.121 146.909 149.936 147.925 150.139 149.146C151.973 147.925 154.214 147.925 156.251 148.942C158.085 149.96 159.51 151.79 159.51 154.028C160.936 153.417 162.566 153.417 163.992 154.028C167.456 155.248 169.289 158.909 168.27 162.367C171.53 161.961 174.79 163.588 176.419 166.435C178.049 169.282 177.845 172.741 176.012 175.385C179.068 176.401 181.308 179.046 181.92 182.301C182.53 185.554 181.512 188.809 179.068 191.047C182.938 194.505 183.346 200.403 180.29 204.471L181.308 204.878C181.716 203.047 182.938 201.42 184.771 200.607C186.402 199.589 188.439 199.386 190.272 199.996C190.476 195.521 194.142 192.064 198.421 192.064C196.994 189.216 196.994 186.368 197.81 183.927ZM165.622 177.826C162.77 181.487 163.178 186.775 166.437 190.03C162.566 192.877 161.14 198.166 162.974 202.437C156.454 203.658 152.177 209.76 153.196 216.268C148.306 215.048 142.806 217.692 141.38 222.778C139.343 221.15 136.898 220.337 134.25 220.744C131.805 221.15 129.564 222.574 128.139 224.812C125.694 221.15 121.008 219.93 117.137 222.167C116.73 220.133 115.508 218.506 113.878 217.489C112.248 216.472 110.007 216.268 108.174 216.879V217.082L107.97 214.845C112.044 214.234 115.508 211.184 116.323 207.115C117.952 207.726 119.582 207.726 121.211 207.522C126.304 206.709 129.564 202.031 128.749 196.946C131.194 196.946 133.842 195.928 135.472 194.098C137.306 192.064 137.916 189.42 137.509 186.979C137.509 186.013 137.254 185.429 136.945 184.724C136.864 184.538 136.779 184.343 136.694 184.131C139.139 183.521 140.972 181.69 141.584 179.249C142.194 176.808 141.38 174.164 139.547 172.537C140.361 172.13 140.972 171.317 141.584 170.503C143.417 167.655 142.398 163.995 139.547 162.164L139.953 161.757C141.176 160.129 141.176 157.892 139.547 156.469C141.38 155.451 143.009 154.028 144.028 152.197C144.843 153.01 146.065 153.417 147.287 153.214C147.287 155.248 148.102 157.079 149.732 158.299C151.362 159.52 153.603 159.927 155.436 159.316V159.52C155.233 162.367 157.066 165.215 160.122 166.028L161.344 166.435C160.326 168.673 160.122 171.114 160.937 173.148C161.751 175.181 163.381 177.012 165.622 177.826Z" fill="#FAEBD7"/>
</svg>
