<svg width="294" height="289" viewBox="0 0 294 289" fill="none" xmlns="http://www.w3.org/2000/svg">
<path fill-rule="evenodd" clip-rule="evenodd" d="M147.061 0C65.7399 0 0 66.2292 0 148.164C0 213.658 42.1218 269.098 100.556 288.72C107.862 290.195 110.538 285.532 110.538 281.609C110.538 278.175 110.297 266.401 110.297 254.133C69.3882 262.966 60.8693 236.471 60.8693 236.471C54.2951 219.3 44.554 214.887 44.554 214.887C31.1646 205.81 45.5293 205.81 45.5293 205.81C60.3817 206.792 68.1751 221.019 68.1751 221.019C81.3207 243.585 102.503 237.209 111.025 233.283C112.241 223.716 116.14 217.093 120.279 213.414C87.6511 209.98 53.3228 197.224 53.3228 140.313C53.3228 124.122 59.1626 110.877 68.4159 100.575C66.956 96.8963 61.8416 81.6846 69.8789 61.3252C69.8789 61.3252 82.296 57.3996 110.294 76.5338C122.281 73.2906 134.643 71.6407 147.061 71.6268C159.478 71.6268 172.136 73.3458 183.824 76.5338C211.825 57.3996 224.242 61.3252 224.242 61.3252C232.279 81.6846 227.162 96.8963 225.702 100.575C235.199 110.877 240.798 124.122 240.798 140.313C240.798 197.224 206.47 209.733 173.598 213.414C178.957 218.075 183.58 226.904 183.58 240.888C183.58 260.756 183.339 276.702 183.339 281.606C183.339 285.532 186.019 290.195 193.321 288.723C251.755 269.095 293.877 213.658 293.877 148.164C294.118 66.2292 228.137 0 147.061 0Z" fill="#FAEBD7"/>
</svg>
