<svg width="281" height="281" viewBox="0 0 281 281" fill="none" xmlns="http://www.w3.org/2000/svg">
<path fill-rule="evenodd" clip-rule="evenodd" d="M0 0V281H281V0H0ZM87.4015 233.447H45.711V108.019H87.4015V233.447ZM66.5562 90.8995H66.2808C52.2956 90.8995 43.2308 81.2646 43.2308 69.2217C43.2308 56.9145 52.5606 47.5526 66.8292 47.5526C81.1009 47.5526 89.8712 56.9145 90.1442 69.2217C90.1442 81.2646 81.1009 90.8995 66.5562 90.8995ZM237.769 233.447H196.068V166.343C196.068 149.488 190.042 137.983 174.949 137.983C163.423 137.983 156.573 145.73 153.556 153.233C152.459 155.914 152.172 159.64 152.172 163.398V233.448H110.463C110.463 233.448 111.022 119.786 110.463 108.019H152.172V125.793C157.714 117.266 167.603 105.075 189.756 105.075C217.199 105.075 237.769 122.997 237.769 161.521V233.447Z" fill="#FAEBD7"/>
</svg>
